<svg xmlns="http://www.w3.org/2000/svg" width="136.67000000000002" height="35" viewBox="0 0 136.67000000000002 35"><rect class="svg__rect" x="0" y="0" width="92.19" height="35" fill="#EFFBFF"/><rect class="svg__rect" x="90.19" y="0" width="46.480000000000004" height="35" fill="#002236"/><path class="svg__text" d="M15.69 22L14.22 22L14.22 13.47L16.14 13.47L18.60 20.01L21.06 13.47L22.97 13.47L22.97 22L21.49 22L21.49 19.19L21.64 15.43L19.12 22L18.06 22L15.55 15.43L15.69 19.19L15.69 22ZM28.49 22L26.95 22L30.17 13.47L31.50 13.47L34.73 22L33.18 22L32.49 20.01L29.18 20.01L28.49 22ZM30.83 15.28L29.60 18.82L32.07 18.82L30.83 15.28ZM41.14 22L38.69 22L38.69 13.47L41.21 13.47Q42.34 13.47 43.21 13.97Q44.09 14.48 44.57 15.40Q45.05 16.33 45.05 17.52L45.05 17.52L45.05 17.95Q45.05 19.16 44.57 20.08Q44.08 21.00 43.19 21.50Q42.30 22 41.14 22L41.14 22ZM40.17 14.66L40.17 20.82L41.14 20.82Q42.30 20.82 42.93 20.09Q43.55 19.36 43.56 17.99L43.56 17.99L43.56 17.52Q43.56 16.13 42.96 15.40Q42.35 14.66 41.21 14.66L41.21 14.66L40.17 14.66ZM55.09 22L49.51 22L49.51 13.47L55.05 13.47L55.05 14.66L51.00 14.66L51.00 17.02L54.50 17.02L54.50 18.19L51.00 18.19L51.00 20.82L55.09 20.82L55.09 22ZM66.83 22L65.35 22L65.35 13.47L66.83 13.47L66.83 22ZM73.12 22L71.64 22L71.64 13.47L73.12 13.47L76.94 19.54L76.94 13.47L78.41 13.47L78.41 22L76.92 22L73.12 15.95L73.12 22Z" fill="#002236"/><path class="svg__text" d="M103.95 17.80L103.95 17.80Q103.95 16.54 104.55 15.54Q105.15 14.55 106.20 13.99Q107.25 13.43 108.57 13.43L108.57 13.43Q109.72 13.43 110.64 13.84Q111.57 14.25 112.18 15.02L112.18 15.02L110.67 16.39Q109.86 15.40 108.69 15.40L108.69 15.40Q108.00 15.40 107.47 15.70Q106.94 16 106.64 16.54Q106.35 17.09 106.35 17.80L106.35 17.80Q106.35 18.51 106.64 19.05Q106.94 19.60 107.47 19.90Q108.00 20.20 108.69 20.20L108.69 20.20Q109.86 20.20 110.67 19.22L110.67 19.22L112.18 20.58Q111.57 21.35 110.65 21.76Q109.72 22.17 108.57 22.17L108.57 22.17Q107.25 22.17 106.20 21.61Q105.15 21.05 104.55 20.05Q103.95 19.06 103.95 17.80ZM117.60 20.21L116.08 20.21L116.08 18.67L117.79 18.67L117.99 16.94L116.48 16.94L116.48 15.39L118.18 15.39L118.41 13.60L120.05 13.60L119.82 15.39L121.29 15.39L121.52 13.60L123.15 13.60L122.92 15.39L124.43 15.39L124.43 16.94L122.73 16.94L122.53 18.67L124.03 18.67L124.03 20.21L122.34 20.21L122.11 22L120.47 22L120.70 20.21L119.23 20.21L119.00 22L117.37 22L117.60 20.21ZM119.62 16.94L119.42 18.67L120.90 18.67L121.10 16.94L119.62 16.94Z" fill="#EFFBFF" x="103.19"/></svg>